HIERARCHY
ROOT Hips
{
	OFFSET 0.000000 0.000000 0.000000
	CHANNELS 6 Xposition Yposition Zposition Zrotation Yrotation Xrotation 
	JOINT LHipJoint
	{
		OFFSET 0.000000 0.000000 0.000000
		CHANNELS 3 Zrotation Yrotation Xrotation
		JOINT LeftUpLeg
		{
			OFFSET 1.363060 -1.794630 0.839290
			CHANNELS 3 Zrotation Yrotation Xrotation
			JOINT LeftLeg
			{
				OFFSET 2.448110 -6.726130 0.000000
				CHANNELS 3 Zrotation Yrotation Xrotation
				JOINT LeftFoot
				{
					OFFSET 2.562200 -7.039590 0.000000
					CHANNELS 3 Zrotation Yrotation Xrotation
					JOINT LeftToeBase
					{
						OFFSET 0.157640 -0.433110 2.322550
						CHANNELS 3 Zrotation Yrotation Xrotation
						End Site
						{
							OFFSET 0.000000 0.000000 0.000000
						}
					}
				}
			}
		}
	}
	JOINT RHipJoint
	{
		OFFSET 0.000000 0.000000 0.000000
		CHANNELS 3 Zrotation Yrotation Xrotation
		JOINT RightUpLeg
		{
			OFFSET -1.305520 -1.794630 0.839290
			CHANNELS 3 Zrotation Yrotation Xrotation
			JOINT RightLeg
			{
				OFFSET -2.542530 -6.985550 0.000000
				CHANNELS 3 Zrotation Yrotation Xrotation
				JOINT RightFoot
				{
					OFFSET -2.568260 -7.056230 0.000000
					CHANNELS 3 Zrotation Yrotation Xrotation
					JOINT RightToeBase
					{
						OFFSET -0.164730 -0.452590 2.363150
						CHANNELS 3 Zrotation Yrotation Xrotation
						End Site
						{
							OFFSET 0.000000 0.000000 0.000000
						}
					}
				}
			}
		}
	}
	JOINT LowerBack
	{
		OFFSET 0.000000 0.000000 0.000000
		CHANNELS 3 Zrotation Yrotation Xrotation
		JOINT Spine
		{
			OFFSET 0.028270 2.035590 -0.193380
			CHANNELS 3 Zrotation Yrotation Xrotation
			JOINT Spine1
			{
				OFFSET 0.056720 2.048850 -0.042750
				CHANNELS 3 Zrotation Yrotation Xrotation
				JOINT Neck
				{
					OFFSET 0.000000 0.000000 0.000000
					CHANNELS 3 Zrotation Yrotation Xrotation
					JOINT Neck1
					{
						OFFSET -0.054170 1.746240 0.172020
						CHANNELS 3 Zrotation Yrotation Xrotation
						JOINT Head
						{
							OFFSET 0.104070 1.761360 -0.123970
							CHANNELS 3 Zrotation Yrotation Xrotation
							End Site
							{
								OFFSET 0.000000 0.000000 0.000000
							}
						}
					}
				}
				JOINT LeftShoulder
				{
					OFFSET 0.000000 0.000000 0.000000
					CHANNELS 3 Zrotation Yrotation Xrotation
					JOINT LeftArm
					{
						OFFSET 3.362410 1.200890 -0.311210
						CHANNELS 3 Zrotation Yrotation Xrotation
						JOINT LeftForeArm
						{
							OFFSET 4.983000 -0.000000 -0.000000
							CHANNELS 3 Zrotation Yrotation Xrotation
							JOINT LeftHand
							{
								OFFSET 3.483560 -0.000000 -0.000000
								CHANNELS 3 Zrotation Yrotation Xrotation
								JOINT LeftFingerBase
								{
									OFFSET 0.000000 0.000000 0.000000
									CHANNELS 3 Zrotation Yrotation Xrotation
									JOINT LeftHandIndex1
									{
										OFFSET 0.715260 -0.000000 -0.000000
										CHANNELS 3 Zrotation Yrotation Xrotation
										End Site
										{
											OFFSET 0.000000 0.000000 0.000000
										}
									}
								}
								JOINT LThumb
								{
									OFFSET 0.000000 0.000000 0.000000
									CHANNELS 3 Zrotation Yrotation Xrotation
									End Site
									{
										OFFSET 0.000000 0.000000 0.000000
									}
								}
							}
						}
					}
				}
				JOINT RightShoulder
				{
					OFFSET 0.000000 0.000000 0.000000
					CHANNELS 3 Zrotation Yrotation Xrotation
					JOINT RightArm
					{
						OFFSET -3.136600 1.374050 -0.404650
						CHANNELS 3 Zrotation Yrotation Xrotation
						JOINT RightForeArm
						{
							OFFSET -5.241900 -0.000000 -0.000000
							CHANNELS 3 Zrotation Yrotation Xrotation
							JOINT RightHand
							{
								OFFSET -3.444170 -0.000000 -0.000000
								CHANNELS 3 Zrotation Yrotation Xrotation
								JOINT RightFingerBase
								{
									OFFSET 0.000000 0.000000 0.000000
									CHANNELS 3 Zrotation Yrotation Xrotation
									JOINT RightHandIndex1
									{
										OFFSET -0.622530 -0.000000 -0.000000
										CHANNELS 3 Zrotation Yrotation Xrotation
										End Site
										{
											OFFSET 0.000000 0.000000 0.000000
										}
									}
								}
								JOINT RThumb
								{
									OFFSET 0.000000 0.000000 0.000000
									CHANNELS 3 Zrotation Yrotation Xrotation
									End Site
									{
										OFFSET 0.000000 0.000000 0.000000
									}
								}
							}
						}
					}
				}
			}
		}
	}
}
MOTION
Frames: 8
Frame Time: 0.008333
4.236116 16.822890 -5.420057 -177.985276 27.574444 -178.443548 -11.817513 4.706270 0.379461 -7.678393 3.776900 15.329786 -0.963518 2.352712 24.235340 0.160707 -2.493759 8.220224 -0.620399 0.000000 -65.678200 8.110361 -1.043652 1.069037 8.728892 -1.340560 -24.985330 2.258047 -1.337818 22.334051 -0.184542 -0.383889 0.997728 -0.414000 0.000000 -44.584200 5.786230 -4.158932 -3.077652 0.737612 -4.699165 -2.806195 -5.961358 -4.600610 2.458126 8.377901 -19.040895 -8.553922 -3.404966 -0.255526 -0.212956 0.000000 0.000000 0.000000 1.560353 9.017952 -0.360708 -55.193245 -20.478629 15.188622 -1.881103 -54.894191 -0.002684 1.329266 0.257912 0.001897 -0.100543 0.225113 0.000000 0.000000 0.000000 0.000000 0.000000 0.000000 0.000000 16.804724 -17.943866 -0.177713 76.973836 -14.040774 -8.326018 4.365275 20.302292 -0.000047 7.019753 0.231436 0.013954 0.065352 0.005051 -0.000000 0.000000 0.000000 0.000000 0.000000 0.000000 0.000000 
4.334470 16.829294 -5.549415 -178.077949 26.787506 -178.733189 -11.930461 4.784392 0.358647 -6.983810 4.112064 14.938220 -0.822553 2.472387 25.716844 0.178136 -3.231946 10.055855 -0.936700 0.000000 -66.738400 8.147407 -1.089053 0.949840 8.537893 -1.729041 -24.598786 2.164298 -1.434318 23.476479 -0.232694 -0.563779 0.608110 -0.417000 -0.000000 -42.938200 5.895902 -4.145277 -3.010645 0.761952 -4.691890 -2.803233 -5.934734 -4.596764 2.430921 8.370783 -19.033478 -8.562697 -3.410371 -0.255941 -0.216305 0.000000 0.000000 0.000000 1.495152 9.033891 -0.347838 -55.540611 -19.951906 15.541667 -1.917444 -54.317202 -0.002766 1.400799 0.221487 0.001496 -0.103110 0.219190 0.000000 0.000000 0.000000 0.000000 0.000000 0.000000 0.000000 16.838977 -17.906919 -0.206965 76.424285 -13.790821 -8.256140 4.350745 20.484872 0.000257 6.849356 0.328430 0.019363 0.066457 0.003752 -0.000000 0.000000 0.000000 0.000000 0.000000 0.000000 0.000000 
4.432016 16.836185 -5.677907 -178.133121 25.998652 -179.006751 -12.054885 4.859138 0.331919 -6.197373 4.538194 14.432820 -0.672987 2.581139 27.301148 0.215236 -4.015682 11.960192 -1.322200 0.000000 -67.058700 8.175697 -1.138876 0.817843 8.427151 -2.225212 -24.116358 2.094340 -1.504740 24.408806 -0.291818 -0.811958 0.098099 -0.426700 0.000000 -41.189400 6.016763 -4.131151 -2.928556 0.787036 -4.684383 -2.798663 -5.913618 -4.592778 2.402156 8.382566 -19.016576 -8.577320 -3.414270 -0.256152 -0.221102 0.000000 0.000000 0.000000 1.439583 9.044030 -0.330448 -55.882326 -19.393369 15.925434 -1.954668 -53.696232 -0.002790 1.459828 0.190576 0.001191 -0.105480 0.212779 0.000000 0.000000 0.000000 0.000000 0.000000 0.000000 0.000000 16.882488 -17.860698 -0.231843 75.862017 -13.490980 -8.242555 4.334619 20.626305 0.000600 6.641600 0.435099 0.025073 0.067802 0.002228 -0.000000 0.000000 0.000000 0.000000 0.000000 0.000000 0.000000 
4.528820 16.843417 -5.805230 -178.156647 25.208420 -179.258773 -12.187347 4.927355 0.300277 -5.337915 5.045311 13.798674 -0.517414 2.677012 28.998200 0.276061 -4.790580 13.908443 -1.763200 0.000000 -66.608700 8.195728 -1.192315 0.679705 8.386064 -2.798584 -23.548024 2.046738 -1.550667 25.133108 -0.360811 -1.118898 -0.523276 -0.438700 0.000000 -39.366400 6.143954 -4.115921 -2.838423 0.811917 -4.675824 -2.793541 -5.897860 -4.587826 2.372740 8.411925 -18.993474 -8.597522 -3.416504 -0.256162 -0.227195 0.000000 0.000000 0.000000 1.392935 9.042776 -0.308666 -56.210236 -18.804094 16.338226 -1.992331 -53.032778 -0.002745 1.502223 0.166846 0.000983 -0.107585 0.205849 0.000000 0.000000 0.000000 0.000000 0.000000 0.000000 0.000000 16.933255 -17.808988 -0.251834 75.291827 -13.139077 -8.271606 4.316750 20.722795 0.000988 6.392211 0.556429 0.030885 0.069416 0.000466 -0.000000 0.000000 0.000000 0.000000 0.000000 0.000000 0.000000 
4.624965 16.850863 -5.931072 -178.159043 24.417355 -179.486513 -12.322133 4.985217 0.265208 -4.438794 5.612271 13.032921 -0.360267 2.758701 30.805656 0.362087 -5.480969 15.852165 -2.227300 0.000000 -65.419100 8.209444 -1.247740 0.541347 8.397578 -3.420882 -22.910470 2.018334 -1.574756 25.665680 -0.437685 -1.467876 -1.238312 -0.447300 -0.000000 -37.522301 6.269332 -4.098463 -2.746767 0.834980 -4.664659 -2.789016 -5.886617 -4.580392 2.342403 8.455978 -18.968552 -8.621387 -3.417185 -0.256015 -0.233981 0.000000 0.000000 0.000000 1.357411 9.014213 -0.283545 -56.519795 -18.171582 16.768078 -2.029385 -52.333746 -0.002627 1.523908 0.152056 0.000769 -0.109300 0.198360 0.000000 0.000000 0.000000 0.000000 0.000000 0.000000 0.000000 16.987906 -17.756852 -0.265633 74.719585 -12.733625 -8.334413 4.297241 20.771827 0.001411 6.101498 0.690833 0.036696 0.071308 -0.001522 -0.000000 0.000000 0.000000 0.000000 0.000000 0.000000 0.000000 
4.720202 16.858556 -6.055382 -178.140331 23.625712 -179.681275 -12.458654 5.028979 0.225811 -3.515463 6.232099 12.119169 -0.203283 2.826589 32.735572 0.474577 -5.991481 17.755002 -2.665600 -0.000000 -63.415000 8.215384 -1.304649 0.411434 8.455077 -4.045682 -22.217339 2.005364 -1.578863 26.020635 -0.522959 -1.859538 -2.021401 -0.450700 0.000000 -35.671300 6.395819 -4.077767 -2.661143 0.856184 -4.650531 -2.785811 -5.883261 -4.569854 2.313163 8.514338 -18.910934 -8.646001 -3.418545 -0.255907 -0.240826 0.000000 0.000000 0.000000 1.322261 8.999295 -0.251106 -56.806786 -17.560853 17.250078 -2.069647 -51.560608 -0.002460 1.531282 0.145458 0.000855 -0.111026 0.190362 0.000000 0.000000 0.000000 0.000000 0.000000 0.000000 0.000000 17.053946 -17.670421 -0.277979 74.151686 -12.307627 -8.460633 4.276677 20.796022 0.001874 5.781449 0.844095 0.042510 0.073363 -0.003751 -0.000000 0.000000 0.000000 0.000000 0.000000 0.000000 0.000000 
4.814471 16.866399 -6.177907 -178.116697 22.835473 -179.846405 -12.588644 5.055217 0.183488 -2.620105 6.871356 11.077386 -0.052347 2.882093 34.760331 0.608786 -6.223362 19.533284 -3.008799 0.000000 -60.809800 8.217581 -1.360528 0.293009 8.534921 -4.654762 -21.491466 2.002554 -1.567196 26.233094 -0.613712 -2.272511 -2.842299 -0.444400 0.000000 -33.921200 6.511058 -4.052362 -2.584458 0.873703 -4.631069 -2.784596 -5.883243 -4.554083 2.283824 8.579176 -18.845177 -8.669684 -3.419200 -0.255773 -0.247138 0.000000 0.000000 0.000000 1.293713 8.955379 -0.215680 -57.076310 -16.921065 17.739911 -2.110075 -50.738102 -0.002237 1.518197 0.148610 0.000936 -0.112412 0.181814 0.000000 0.000000 0.000000 0.000000 0.000000 0.000000 0.000000 17.117426 -17.576982 -0.284678 73.590345 -11.839408 -8.609082 4.255162 20.778414 0.002358 5.428729 1.009183 0.047723 0.075650 -0.006155 -0.000000 0.000000 0.000000 0.000000 0.000000 0.000000 0.000000 
4.907436 16.874487 -6.298616 -178.092700 22.048090 -179.979660 -12.709864 5.061452 0.137543 -1.780614 7.513934 9.912865 0.090791 2.928248 36.866530 0.760843 -6.080165 21.123690 -3.182200 0.000000 -57.718100 8.216471 -1.414329 0.191219 8.625539 -5.215354 -20.748535 2.004938 -1.542802 26.329477 -0.709903 -2.706939 -3.669213 -0.428900 -0.000000 -32.332000 6.614345 -4.021055 -2.520220 0.887364 -4.605271 -2.785705 -5.886486 -4.532020 2.254945 8.646157 -18.759498 -8.689782 -3.420042 -0.255709 -0.252287 0.000000 0.000000 0.000000 1.266077 8.895262 -0.176480 -57.333137 -16.275781 18.237879 -2.152291 -49.847748 -0.001980 1.489590 0.160474 0.001215 -0.113619 0.172777 0.000000 0.000000 0.000000 0.000000 0.000000 0.000000 0.000000 17.176596 -17.463688 -0.287360 73.037711 -11.342545 -8.783056 4.233316 20.728347 0.002854 5.053073 1.184832 0.052138 0.078103 -0.008698 0.000000 0.000000 0.000000 0.000000 0.000000 0.000000 0.000000 
